<svg xmlns="http://www.w3.org/2000/svg" width="16" height="16"><defs><clipPath id="cp1"><path d="M8 1c.41 0 .68.17 1.02.51l5.73 5.73c.34.34.34.9 0 1.24-.34.34-.9.34-1.24 0L8 2.97 2.49 8.48c-.34.34-.9.34-1.24 0-.34-.34-.34-.9 0-1.24L7 1.49c.33-.33.59-.49 1-.49zm0 6c.41 0 .68.17 1.02.51l5.73 5.73c.34.34.34.9 0 1.24-.34.34-.9.34-1.24 0L8 8.97l-5.51 5.51c-.34.34-.9.34-1.24 0-.34-.34-.34-.9 0-1.24L7 7.49c.33-.33.59-.49 1-.49z"/></clipPath></defs><style></style><g opacity=".302"><path d="M0 0h16v16H0z" fill="none"/><path d="M8 1c.41 0 .68.17 1.02.51l5.73 5.73c.34.34.34.9 0 1.24-.34.34-.9.34-1.24 0L8 2.97 2.49 8.48c-.34.34-.9.34-1.24 0-.34-.34-.34-.9 0-1.24L7 1.49c.33-.33.59-.49 1-.49zm0 6c.41 0 .68.17 1.02.51l5.73 5.73c.34.34.34.9 0 1.24-.34.34-.9.34-1.24 0L8 8.97l-5.51 5.51c-.34.34-.9.34-1.24 0-.34-.34-.34-.9 0-1.24L7 7.49c.33-.33.59-.49 1-.49z"/><g clip-path="url(#cp1)"><path d="M-82-57H98V73H-82z" fill="#333"/></g></g></svg>