<svg xmlns="http://www.w3.org/2000/svg" width="24" height="24"><style></style><path d="M0 0h24v24H0z" fill="none"/><path d="M14 14.76V3.5C14 2.12 12.88 1 11.5 1S9 2.12 9 3.5v11.26c-1.65 1.1-2.38 3.15-1.81 5.05.58 1.9 2.32 3.19 4.31 3.19 1.98 0 3.73-1.3 4.31-3.19.58-1.9-.16-3.95-1.81-5.05z" fill="none" stroke="#333" stroke-linecap="round" stroke-linejoin="round" stroke-opacity=".4" stroke-width="2"/><path d="M15 18.5c0-1.94-1.56-3.5-3.5-3.5S8 16.56 8 18.5 9.56 22 11.5 22s3.5-1.56 3.5-3.5z" opacity=".102" fill="#333"/></svg>